<?xml version="1.0" encoding="UTF-8" standalone="no"?>
<!-- Created with Inkscape (http://www.inkscape.org/) -->

<svg
   xmlns:dc="http://purl.org/dc/elements/1.1/"
   xmlns:cc="http://creativecommons.org/ns#"
   xmlns:rdf="http://www.w3.org/1999/02/22-rdf-syntax-ns#"
   xmlns:svg="http://www.w3.org/2000/svg"
   xmlns="http://www.w3.org/2000/svg"
   xmlns:sodipodi="http://sodipodi.sourceforge.net/DTD/sodipodi-0.dtd"
   xmlns:inkscape="http://www.inkscape.org/namespaces/inkscape"
   width="100mm"
   height="40mm"
   viewBox="0 0 100 40"
   version="1.1"
   id="svg8"
   inkscape:version="0.92.1 r15371"
   sodipodi:docname="teste.svg">
  <defs
     id="defs2" />
  <sodipodi:namedview
     id="base"
     pagecolor="#ffffff"
     bordercolor="#666666"
     borderopacity="1.0"
     inkscape:pageopacity="0.0"
     inkscape:pageshadow="2"
     inkscape:zoom="0.98994949"
     inkscape:cx="259.73139"
     inkscape:cy="-30.05688"
     inkscape:document-units="mm"
     inkscape:current-layer="layer1"
     showgrid="false"
     inkscape:window-width="1366"
     inkscape:window-height="706"
     inkscape:window-x="-8"
     inkscape:window-y="-8"
     inkscape:window-maximized="1"
     fit-margin-top="0"
     fit-margin-left="0"
     fit-margin-right="0"
     fit-margin-bottom="0" />
  <metadata
     id="metadata5">
    <rdf:RDF>
      <cc:Work
         rdf:about="">
        <dc:format>image/svg+xml</dc:format>
        <dc:type
           rdf:resource="http://purl.org/dc/dcmitype/StillImage" />
        <dc:title />
      </cc:Work>
    </rdf:RDF>
  </metadata>
  <g
     inkscape:label="Camada 1"
     inkscape:groupmode="layer"
     id="layer1"
     transform="translate(-14.363094,-22.589287)">
    <g
       aria-label="PIPE"
       style="font-style:normal;font-weight:normal;font-size:6.82393742px;line-height:1.25;font-family:sans-serif;letter-spacing:0px;word-spacing:0px;fill:#5f8dd3;fill-opacity:1;stroke:none;stroke-width:0.17059845"
       id="text4493">
      <path
         d="m 34.544523,42.394044 v 7.90084 H 28.930769 V 27.008198 h 9.292283 q 2.670932,0 4.718113,0.991604 2.063174,0.975609 3.182727,2.79888 1.135545,1.807277 1.135545,4.110356 0,3.406637 -2.447021,5.453819 -2.431027,2.031187 -6.685326,2.031187 z m 0,-4.334266 h 3.678529 q 1.631347,0 2.479008,-0.815674 0.863655,-0.815674 0.863655,-2.303079 0,-1.631347 -0.879648,-2.606957 -0.879648,-0.97561 -2.399041,-0.991603 h -3.742503 z"
         style="font-style:normal;font-variant:normal;font-weight:900;font-stretch:normal;font-size:32.75489807px;font-family:Roboto;-inkscape-font-specification:'Roboto Heavy';fill:#5f8dd3;stroke-width:0.17059845"
         id="path4532" />
      <path
         d="m 56.215854,50.294884 h -5.59776 V 27.008198 h 5.59776 z"
         style="font-style:normal;font-variant:normal;font-weight:900;font-stretch:normal;font-size:32.75489807px;font-family:Roboto;-inkscape-font-specification:'Roboto Heavy';fill:#5f8dd3;stroke-width:0.17059845"
         id="path4534" />
      <path
         d="m 65.764036,42.394044 v 7.90084 H 60.150282 V 27.008198 h 9.292283 q 2.670931,0 4.718113,0.991604 2.063174,0.975609 3.182727,2.79888 1.135545,1.807277 1.135545,4.110356 0,3.406637 -2.447021,5.453819 -2.431027,2.031187 -6.685326,2.031187 z m 0,-4.334266 h 3.678529 q 1.631347,0 2.479008,-0.815674 0.863655,-0.815674 0.863655,-2.303079 0,-1.631347 -0.879648,-2.606957 -0.879648,-0.97561 -2.399041,-0.991603 h -3.742503 z"
         style="font-style:normal;font-variant:normal;font-weight:900;font-stretch:normal;font-size:32.75489807px;font-family:Roboto;-inkscape-font-specification:'Roboto Heavy';fill:#5f8dd3;stroke-width:0.17059845"
         id="path4536" />
      <path
         d="m 95.895983,40.426831 h -8.828468 v 5.54978 h 10.427828 v 4.318273 H 81.45376 V 27.008198 h 16.073571 v 4.334267 H 87.067515 v 4.910036 h 8.828468 z"
         style="font-style:normal;font-variant:normal;font-weight:900;font-stretch:normal;font-size:32.75489807px;font-family:Roboto;-inkscape-font-specification:'Roboto Heavy';fill:#5f8dd3;stroke-width:0.17059845"
         id="path4538" />
    </g>
    <g
       aria-label="Pesquisa Inovativa em Pequenas Empresas"
       style="font-style:normal;font-variant:normal;font-weight:300;font-stretch:normal;font-size:4.93888903px;line-height:1.25;font-family:roboto;-inkscape-font-specification:'roboto Light';letter-spacing:0px;word-spacing:0px;fill:#5f8dd3;fill-opacity:1;stroke:none;stroke-width:0.26458332"
       id="text4530">
      <path
         d="m 17.530358,55.290045 v 1.430059 h -0.296623 v -3.511241 h 1.196137 q 0.547426,0 0.863341,0.279742 0.318327,0.279741 0.318327,0.769289 0,0.494372 -0.306269,0.764467 -0.303858,0.267684 -0.882634,0.267684 z m 0,-0.250803 h 0.899514 q 0.431671,0 0.658358,-0.204983 0.226687,-0.204983 0.226687,-0.571541 0,-0.364147 -0.226687,-0.578777 -0.224276,-0.217041 -0.639065,-0.221864 h -0.918807 z"
         style="font-style:normal;font-variant:normal;font-weight:300;font-stretch:normal;font-size:4.93888903px;font-family:roboto;-inkscape-font-specification:'roboto Light';fill:#5f8dd3;stroke-width:0.26458332"
         id="path4541" />
      <path
         d="m 21.186293,56.768336 q -0.332796,0 -0.602892,-0.163987 -0.267684,-0.163987 -0.417201,-0.455786 -0.149517,-0.294211 -0.149517,-0.658358 v -0.103697 q 0,-0.376205 0.144694,-0.677651 0.147106,-0.301445 0.407555,-0.472667 0.260449,-0.173633 0.564307,-0.173633 0.475078,0 0.752408,0.325562 0.279742,0.32315 0.279742,0.885045 v 0.161575 H 20.30366 v 0.05547 q 0,0.443728 0.253214,0.740351 0.255626,0.294211 0.641477,0.294211 0.23151,0 0.407555,-0.0844 0.178456,-0.0844 0.32315,-0.270095 l 0.180867,0.137459 q -0.318327,0.46061 -0.92363,0.46061 z m -0.05305,-2.459799 q -0.325562,0 -0.549838,0.238745 -0.221864,0.238746 -0.270095,0.641477 h 1.565107 v -0.03135 q -0.01206,-0.376205 -0.21463,-0.612538 -0.202571,-0.236334 -0.530544,-0.236334 z"
         style="font-style:normal;font-variant:normal;font-weight:300;font-stretch:normal;font-size:4.93888903px;font-family:roboto;-inkscape-font-specification:'roboto Light';fill:#5f8dd3;stroke-width:0.26458332"
         id="path4543" />
      <path
         d="m 24.294802,56.056923 q 0,-0.214629 -0.173632,-0.344854 -0.171222,-0.130224 -0.518487,-0.202571 -0.347266,-0.07476 -0.540191,-0.16881 -0.190514,-0.09646 -0.284565,-0.233922 -0.09164,-0.137459 -0.09164,-0.332796 0,-0.308681 0.258038,-0.508841 0.258038,-0.202572 0.660769,-0.202572 0.436494,0 0.699355,0.217042 0.265272,0.214629 0.265272,0.561895 h -0.289388 q 0,-0.229099 -0.192925,-0.381028 -0.190514,-0.151929 -0.482314,-0.151929 -0.284565,0 -0.458197,0.127813 -0.171222,0.125402 -0.171222,0.327973 0,0.195337 0.142283,0.303858 0.144694,0.106109 0.52331,0.195337 0.381027,0.08923 0.56913,0.190514 0.190513,0.101285 0.282153,0.243568 0.09164,0.142282 0.09164,0.344854 0,0.330385 -0.267683,0.528133 -0.265273,0.197749 -0.694532,0.197749 -0.455786,0 -0.740351,-0.219453 -0.282153,-0.221864 -0.282153,-0.559484 h 0.289388 q 0.01688,0.253215 0.212218,0.395497 0.197748,0.139871 0.520898,0.139871 0.301446,0 0.487137,-0.132636 0.18569,-0.132636 0.18569,-0.335208 z"
         style="font-style:normal;font-variant:normal;font-weight:300;font-stretch:normal;font-size:4.93888903px;font-family:roboto;-inkscape-font-specification:'roboto Light';fill:#5f8dd3;stroke-width:0.26458332"
         id="path4545" />
      <path
         d="m 25.114735,55.391331 q 0,-0.612538 0.270096,-0.96945 0.272507,-0.359324 0.742763,-0.359324 0.528133,0 0.803051,0.402732 l 0.01447,-0.3545 h 0.270095 v 3.612527 h -0.289388 v -1.326362 q -0.284565,0.371382 -0.803052,0.371382 -0.458197,0 -0.733116,-0.361735 -0.274919,-0.361736 -0.274919,-0.976685 z m 0.2918,0.05064 q 0,0.506429 0.202572,0.795817 0.204983,0.286976 0.566718,0.286976 0.518487,0 0.749997,-0.450963 v -1.27813 q -0.10852,-0.233922 -0.301446,-0.359324 -0.190513,-0.127813 -0.443728,-0.127813 -0.364147,0 -0.56913,0.289388 -0.204983,0.286977 -0.204983,0.844049 z"
         style="font-style:normal;font-variant:normal;font-weight:300;font-stretch:normal;font-size:4.93888903px;font-family:roboto;-inkscape-font-specification:'roboto Light';fill:#5f8dd3;stroke-width:0.26458332"
         id="path4547" />
      <path
         d="m 29.667774,56.38972 q -0.260449,0.378616 -0.83199,0.378616 -0.417202,0 -0.634243,-0.241157 -0.217041,-0.243568 -0.221864,-0.718647 v -1.697743 h 0.286977 v 1.661569 q 0,0.745175 0.602891,0.745175 0.627008,0 0.793406,-0.518487 v -1.888257 h 0.289388 v 2.609315 h -0.279742 z"
         style="font-style:normal;font-variant:normal;font-weight:300;font-stretch:normal;font-size:4.93888903px;font-family:roboto;-inkscape-font-specification:'roboto Light';fill:#5f8dd3;stroke-width:0.26458332"
         id="path4549" />
      <path
         d="m 31.023074,56.720104 h -0.289388 v -2.609315 h 0.289388 z m -0.340031,-3.364136 q 0,-0.08199 0.05305,-0.137459 0.05305,-0.05788 0.144694,-0.05788 0.09164,0 0.144694,0.05788 0.05547,0.05547 0.05547,0.137459 0,0.08199 -0.05547,0.13746 -0.05306,0.05547 -0.144694,0.05547 -0.09164,0 -0.144694,-0.05547 -0.05305,-0.05547 -0.05305,-0.13746 z"
         style="font-style:normal;font-variant:normal;font-weight:300;font-stretch:normal;font-size:4.93888903px;font-family:roboto;-inkscape-font-specification:'roboto Light';fill:#5f8dd3;stroke-width:0.26458332"
         id="path4551" />
      <path
         d="m 33.37194,56.056923 q 0,-0.214629 -0.173632,-0.344854 -0.171222,-0.130224 -0.518487,-0.202571 -0.347266,-0.07476 -0.540191,-0.16881 -0.190514,-0.09646 -0.284565,-0.233922 -0.09164,-0.137459 -0.09164,-0.332796 0,-0.308681 0.258038,-0.508841 0.258038,-0.202572 0.660769,-0.202572 0.436494,0 0.699355,0.217042 0.265272,0.214629 0.265272,0.561895 h -0.289388 q 0,-0.229099 -0.192925,-0.381028 -0.190514,-0.151929 -0.482314,-0.151929 -0.284565,0 -0.458197,0.127813 -0.171222,0.125402 -0.171222,0.327973 0,0.195337 0.142283,0.303858 0.144694,0.106109 0.52331,0.195337 0.381027,0.08923 0.56913,0.190514 0.190513,0.101285 0.282153,0.243568 0.09164,0.142282 0.09164,0.344854 0,0.330385 -0.267683,0.528133 -0.265273,0.197749 -0.694532,0.197749 -0.455786,0 -0.740351,-0.219453 -0.282153,-0.221864 -0.282153,-0.559484 h 0.289388 q 0.01688,0.253215 0.212218,0.395497 0.197748,0.139871 0.520898,0.139871 0.301446,0 0.487137,-0.132636 0.18569,-0.132636 0.18569,-0.335208 z"
         style="font-style:normal;font-variant:normal;font-weight:300;font-stretch:normal;font-size:4.93888903px;font-family:roboto;-inkscape-font-specification:'roboto Light';fill:#5f8dd3;stroke-width:0.26458332"
         id="path4553" />
      <path
         d="m 35.954728,56.720104 q -0.04341,-0.12299 -0.05547,-0.364146 -0.151929,0.197748 -0.388262,0.306269 -0.233922,0.106109 -0.496783,0.106109 -0.376205,0 -0.610127,-0.209807 -0.23151,-0.209806 -0.23151,-0.530544 0,-0.381028 0.315915,-0.602892 0.318327,-0.221864 0.885045,-0.221864 h 0.52331 v -0.296623 q 0,-0.279742 -0.173633,-0.438905 -0.171221,-0.161575 -0.501606,-0.161575 -0.301445,0 -0.499194,0.15434 -0.197748,0.15434 -0.197748,0.371381 l -0.289388,-0.0024 q 0,-0.311092 0.289388,-0.53778 0.289388,-0.229099 0.711412,-0.229099 0.436493,0 0.687296,0.219453 0.253215,0.217041 0.26045,0.607715 v 1.234722 q 0,0.378616 0.07958,0.566718 v 0.02894 z m -0.906749,-0.207395 q 0.289388,0 0.516075,-0.13987 0.229099,-0.139871 0.332796,-0.373793 v -0.573953 h -0.516075 q -0.431671,0.0048 -0.675239,0.159163 -0.243568,0.151929 -0.243568,0.419613 0,0.219452 0.161575,0.364146 0.163986,0.144694 0.424436,0.144694 z"
         style="font-style:normal;font-variant:normal;font-weight:300;font-stretch:normal;font-size:4.93888903px;font-family:roboto;-inkscape-font-specification:'roboto Light';fill:#5f8dd3;stroke-width:0.26458332"
         id="path4555" />
      <path
         d="m 38.585748,56.720104 h -0.296623 v -3.511241 h 0.296623 z"
         style="font-style:normal;font-variant:normal;font-weight:300;font-stretch:normal;font-size:4.93888903px;font-family:roboto;-inkscape-font-specification:'roboto Light';fill:#5f8dd3;stroke-width:0.26458332"
         id="path4557" />
      <path
         d="m 39.7433,54.110789 0.0096,0.44614 q 0.147105,-0.241157 0.366558,-0.366558 0.219453,-0.127814 0.484725,-0.127814 0.419613,0 0.624596,0.236334 0.204983,0.236334 0.207394,0.709001 v 1.712212 H 41.149243 V 55.00548 q -0.0024,-0.349677 -0.149517,-0.520898 -0.144694,-0.171222 -0.465433,-0.171222 -0.267683,0 -0.475078,0.16881 -0.204983,0.166398 -0.303858,0.450963 v 1.786971 h -0.286976 v -2.609315 z"
         style="font-style:normal;font-variant:normal;font-weight:300;font-stretch:normal;font-size:4.93888903px;font-family:roboto;-inkscape-font-specification:'roboto Light';fill:#5f8dd3;stroke-width:0.26458332"
         id="path4559" />
      <path
         d="m 42.019819,55.376861 q 0,-0.376204 0.144694,-0.67765 0.147106,-0.301446 0.412378,-0.467844 0.267684,-0.16881 0.605304,-0.16881 0.520898,0 0.844048,0.366559 0.32315,0.364146 0.32315,0.967038 v 0.06029 q 0,0.378616 -0.147106,0.682474 -0.144694,0.301445 -0.409966,0.465432 -0.265272,0.163987 -0.605303,0.163987 -0.518487,0 -0.844049,-0.364147 -0.32315,-0.366558 -0.32315,-0.96945 z m 0.289388,0.07958 q 0,0.467844 0.241157,0.76929 0.243568,0.299034 0.636654,0.299034 0.390673,0 0.63183,-0.299034 0.243568,-0.301446 0.243568,-0.793406 v -0.05547 q 0,-0.299034 -0.110932,-0.547425 -0.110932,-0.248392 -0.311092,-0.383439 -0.20016,-0.13746 -0.458197,-0.13746 -0.385851,0 -0.629419,0.303858 -0.243569,0.301446 -0.243569,0.790994 z"
         style="font-style:normal;font-variant:normal;font-weight:300;font-stretch:normal;font-size:4.93888903px;font-family:roboto;-inkscape-font-specification:'roboto Light';fill:#5f8dd3;stroke-width:0.26458332"
         id="path4561" />
      <path
         d="m 45.721573,56.322196 0.793406,-2.211407 h 0.296623 l -0.974273,2.609315 h -0.233922 l -0.979096,-2.609315 h 0.296622 z"
         style="font-style:normal;font-variant:normal;font-weight:300;font-stretch:normal;font-size:4.93888903px;font-family:roboto;-inkscape-font-specification:'roboto Light';fill:#5f8dd3;stroke-width:0.26458332"
         id="path4563" />
      <path
         d="m 48.890374,56.720104 q -0.04341,-0.12299 -0.05547,-0.364146 -0.151929,0.197748 -0.388262,0.306269 -0.233922,0.106109 -0.496783,0.106109 -0.376205,0 -0.610127,-0.209807 -0.23151,-0.209806 -0.23151,-0.530544 0,-0.381028 0.315915,-0.602892 0.318327,-0.221864 0.885045,-0.221864 h 0.52331 v -0.296623 q 0,-0.279742 -0.173633,-0.438905 -0.171221,-0.161575 -0.501605,-0.161575 -0.301446,0 -0.499195,0.15434 -0.197748,0.15434 -0.197748,0.371381 l -0.289388,-0.0024 q 0,-0.311092 0.289388,-0.53778 0.289388,-0.229099 0.711412,-0.229099 0.436494,0 0.687297,0.219453 0.253214,0.217041 0.260449,0.607715 v 1.234722 q 0,0.378616 0.07958,0.566718 v 0.02894 z m -0.906749,-0.207395 q 0.289388,0 0.516075,-0.13987 0.229099,-0.139871 0.332796,-0.373793 v -0.573953 h -0.516075 q -0.431671,0.0048 -0.675239,0.159163 -0.243568,0.151929 -0.243568,0.419613 0,0.219452 0.161575,0.364146 0.163986,0.144694 0.424436,0.144694 z"
         style="font-style:normal;font-variant:normal;font-weight:300;font-stretch:normal;font-size:4.93888903px;font-family:roboto;-inkscape-font-specification:'roboto Light';fill:#5f8dd3;stroke-width:0.26458332"
         id="path4565" />
      <path
         d="m 50.334901,53.442785 v 0.668004 h 0.540191 v 0.236333 h -0.540191 v 1.73874 q 0,0.217041 0.07717,0.32315 0.07958,0.106109 0.262861,0.106109 0.07235,0 0.233922,-0.02412 l 0.01206,0.236334 q -0.113344,0.041 -0.308681,0.041 -0.296622,0 -0.43167,-0.171222 -0.135048,-0.173633 -0.135048,-0.50884 v -1.741152 h -0.479902 v -0.236333 h 0.479902 v -0.668004 z"
         style="font-style:normal;font-variant:normal;font-weight:300;font-stretch:normal;font-size:4.93888903px;font-family:roboto;-inkscape-font-specification:'roboto Light';fill:#5f8dd3;stroke-width:0.26458332"
         id="path4567" />
      <path
         d="m 51.801136,56.720104 h -0.289388 v -2.609315 h 0.289388 z m -0.340031,-3.364136 q 0,-0.08199 0.05305,-0.137459 0.05305,-0.05788 0.144694,-0.05788 0.09164,0 0.144694,0.05788 0.05547,0.05547 0.05547,0.137459 0,0.08199 -0.05547,0.13746 -0.05306,0.05547 -0.144694,0.05547 -0.09164,0 -0.144694,-0.05547 -0.05305,-0.05547 -0.05305,-0.13746 z"
         style="font-style:normal;font-variant:normal;font-weight:300;font-stretch:normal;font-size:4.93888903px;font-family:roboto;-inkscape-font-specification:'roboto Light';fill:#5f8dd3;stroke-width:0.26458332"
         id="path4569" />
      <path
         d="m 53.400002,56.322196 0.793406,-2.211407 h 0.296622 l -0.974273,2.609315 h -0.233922 l -0.979096,-2.609315 h 0.296623 z"
         style="font-style:normal;font-variant:normal;font-weight:300;font-stretch:normal;font-size:4.93888903px;font-family:roboto;-inkscape-font-specification:'roboto Light';fill:#5f8dd3;stroke-width:0.26458332"
         id="path4571" />
      <path
         d="m 56.568801,56.720104 q -0.04341,-0.12299 -0.05547,-0.364146 -0.151929,0.197748 -0.388263,0.306269 -0.233922,0.106109 -0.496782,0.106109 -0.376205,0 -0.610127,-0.209807 -0.23151,-0.209806 -0.23151,-0.530544 0,-0.381028 0.315915,-0.602892 0.318327,-0.221864 0.885045,-0.221864 h 0.52331 v -0.296623 q 0,-0.279742 -0.173633,-0.438905 -0.171221,-0.161575 -0.501606,-0.161575 -0.301446,0 -0.499194,0.15434 -0.197749,0.15434 -0.197749,0.371381 l -0.289388,-0.0024 q 0,-0.311092 0.289388,-0.53778 0.289388,-0.229099 0.711413,-0.229099 0.436493,0 0.687296,0.219453 0.253215,0.217041 0.260449,0.607715 v 1.234722 q 0,0.378616 0.07958,0.566718 v 0.02894 z m -0.90675,-0.207395 q 0.289388,0 0.516076,-0.13987 0.229099,-0.139871 0.332796,-0.373793 v -0.573953 h -0.516075 q -0.431671,0.0048 -0.675239,0.159163 -0.243568,0.151929 -0.243568,0.419613 0,0.219452 0.161575,0.364146 0.163986,0.144694 0.424435,0.144694 z"
         style="font-style:normal;font-variant:normal;font-weight:300;font-stretch:normal;font-size:4.93888903px;font-family:roboto;-inkscape-font-specification:'roboto Light';fill:#5f8dd3;stroke-width:0.26458332"
         id="path4573" />
      <path
         d="m 59.781009,56.768336 q -0.332797,0 -0.602892,-0.163987 -0.267684,-0.163987 -0.417201,-0.455786 -0.149517,-0.294211 -0.149517,-0.658358 v -0.103697 q 0,-0.376205 0.144694,-0.677651 0.147105,-0.301445 0.407555,-0.472667 0.260449,-0.173633 0.564306,-0.173633 0.475079,0 0.752409,0.325562 0.279742,0.32315 0.279742,0.885045 v 0.161575 h -1.86173 v 0.05547 q 0,0.443728 0.253215,0.740351 0.255626,0.294211 0.641476,0.294211 0.231511,0 0.407555,-0.0844 0.178456,-0.0844 0.32315,-0.270095 l 0.180868,0.137459 q -0.318327,0.46061 -0.92363,0.46061 z m -0.05306,-2.459799 q -0.325561,0 -0.549837,0.238745 -0.221864,0.238746 -0.270096,0.641477 h 1.565107 v -0.03135 q -0.01206,-0.376205 -0.214629,-0.612538 -0.202572,-0.236334 -0.530545,-0.236334 z"
         style="font-style:normal;font-variant:normal;font-weight:300;font-stretch:normal;font-size:4.93888903px;font-family:roboto;-inkscape-font-specification:'roboto Light';fill:#5f8dd3;stroke-width:0.26458332"
         id="path4575" />
      <path
         d="m 61.589686,54.110789 0.0096,0.424436 q 0.144694,-0.236334 0.361735,-0.354501 0.217041,-0.118167 0.482314,-0.118167 0.617361,0 0.783759,0.50643 0.139871,-0.243569 0.373793,-0.373793 0.233922,-0.132637 0.516075,-0.132637 0.839225,0 0.856106,0.916396 v 1.741151 h -0.289388 v -1.719447 q -0.0024,-0.349677 -0.151928,-0.518487 -0.147106,-0.16881 -0.482314,-0.16881 -0.311092,0.0048 -0.525721,0.202572 -0.21463,0.195337 -0.238746,0.47749 v 1.726682 h -0.289388 v -1.741151 q -0.0024,-0.335208 -0.159163,-0.499194 -0.15434,-0.166399 -0.47749,-0.166399 -0.272507,0 -0.467844,0.156752 -0.195337,0.154341 -0.289388,0.46061 v 1.789382 h -0.289388 v -2.609315 z"
         style="font-style:normal;font-variant:normal;font-weight:300;font-stretch:normal;font-size:4.93888903px;font-family:roboto;-inkscape-font-specification:'roboto Light';fill:#5f8dd3;stroke-width:0.26458332"
         id="path4577" />
      <path
         d="m 67.276158,55.290045 v 1.430059 h -0.296623 v -3.511241 h 1.196137 q 0.547426,0 0.863341,0.279742 0.318327,0.279741 0.318327,0.769289 0,0.494372 -0.306269,0.764467 -0.303857,0.267684 -0.882634,0.267684 z m 0,-0.250803 h 0.899514 q 0.431671,0 0.658358,-0.204983 0.226687,-0.204983 0.226687,-0.571541 0,-0.364147 -0.226687,-0.578777 -0.224276,-0.217041 -0.639065,-0.221864 h -0.918807 z"
         style="font-style:normal;font-variant:normal;font-weight:300;font-stretch:normal;font-size:4.93888903px;font-family:roboto;-inkscape-font-specification:'roboto Light';fill:#5f8dd3;stroke-width:0.26458332"
         id="path4579" />
      <path
         d="m 70.932094,56.768336 q -0.332797,0 -0.602892,-0.163987 -0.267684,-0.163987 -0.417201,-0.455786 -0.149517,-0.294211 -0.149517,-0.658358 v -0.103697 q 0,-0.376205 0.144694,-0.677651 0.147105,-0.301445 0.407554,-0.472667 0.26045,-0.173633 0.564307,-0.173633 0.475079,0 0.752409,0.325562 0.279742,0.32315 0.279742,0.885045 v 0.161575 h -1.86173 v 0.05547 q 0,0.443728 0.253215,0.740351 0.255626,0.294211 0.641476,0.294211 0.231511,0 0.407555,-0.0844 0.178456,-0.0844 0.32315,-0.270095 l 0.180868,0.137459 q -0.318327,0.46061 -0.92363,0.46061 z m -0.05306,-2.459799 q -0.325561,0 -0.549837,0.238745 -0.221864,0.238746 -0.270096,0.641477 h 1.565107 v -0.03135 q -0.01206,-0.376205 -0.214629,-0.612538 -0.202572,-0.236334 -0.530545,-0.236334 z"
         style="font-style:normal;font-variant:normal;font-weight:300;font-stretch:normal;font-size:4.93888903px;font-family:roboto;-inkscape-font-specification:'roboto Light';fill:#5f8dd3;stroke-width:0.26458332"
         id="path4581" />
      <path
         d="m 72.362155,55.391331 q 0,-0.612538 0.270095,-0.96945 0.272507,-0.359324 0.742763,-0.359324 0.528133,0 0.803052,0.402732 l 0.01447,-0.3545 h 0.270096 v 3.612527 h -0.289388 v -1.326362 q -0.284565,0.371382 -0.803052,0.371382 -0.458198,0 -0.733117,-0.361735 -0.274918,-0.361736 -0.274918,-0.976685 z m 0.291799,0.05064 q 0,0.506429 0.202572,0.795817 0.204983,0.286976 0.566718,0.286976 0.518487,0 0.749998,-0.450963 v -1.27813 q -0.108521,-0.233922 -0.301446,-0.359324 -0.190514,-0.127813 -0.443729,-0.127813 -0.364146,0 -0.569129,0.289388 -0.204984,0.286977 -0.204984,0.844049 z"
         style="font-style:normal;font-variant:normal;font-weight:300;font-stretch:normal;font-size:4.93888903px;font-family:roboto;-inkscape-font-specification:'roboto Light';fill:#5f8dd3;stroke-width:0.26458332"
         id="path4583" />
      <path
         d="m 76.915192,56.38972 q -0.26045,0.378616 -0.831991,0.378616 -0.417201,0 -0.634242,-0.241157 -0.217041,-0.243568 -0.221864,-0.718647 v -1.697743 h 0.286976 v 1.661569 q 0,0.745175 0.602892,0.745175 0.627007,0 0.793405,-0.518487 v -1.888257 h 0.289388 v 2.609315 h -0.279741 z"
         style="font-style:normal;font-variant:normal;font-weight:300;font-stretch:normal;font-size:4.93888903px;font-family:roboto;-inkscape-font-specification:'roboto Light';fill:#5f8dd3;stroke-width:0.26458332"
         id="path4585" />
      <path
         d="m 78.957789,56.768336 q -0.332796,0 -0.602891,-0.163987 -0.267684,-0.163987 -0.417201,-0.455786 -0.149518,-0.294211 -0.149518,-0.658358 v -0.103697 q 0,-0.376205 0.144694,-0.677651 0.147106,-0.301445 0.407555,-0.472667 0.260449,-0.173633 0.564307,-0.173633 0.475079,0 0.752409,0.325562 0.279742,0.32315 0.279742,0.885045 v 0.161575 h -1.86173 v 0.05547 q 0,0.443728 0.253214,0.740351 0.255626,0.294211 0.641477,0.294211 0.231511,0 0.407555,-0.0844 0.178456,-0.0844 0.32315,-0.270095 l 0.180867,0.137459 q -0.318326,0.46061 -0.92363,0.46061 z m -0.05305,-2.459799 q -0.325562,0 -0.549837,0.238745 -0.221865,0.238746 -0.270096,0.641477 h 1.565107 v -0.03135 q -0.01206,-0.376205 -0.214629,-0.612538 -0.202572,-0.236334 -0.530545,-0.236334 z"
         style="font-style:normal;font-variant:normal;font-weight:300;font-stretch:normal;font-size:4.93888903px;font-family:roboto;-inkscape-font-specification:'roboto Light';fill:#5f8dd3;stroke-width:0.26458332"
         id="path4587" />
      <path
         d="m 80.778521,54.110789 0.0096,0.44614 q 0.147105,-0.241157 0.366558,-0.366558 0.219453,-0.127814 0.484725,-0.127814 0.419613,0 0.624596,0.236334 0.204983,0.236334 0.207395,0.709001 v 1.712212 H 82.184464 V 55.00548 q -0.0024,-0.349677 -0.149517,-0.520898 -0.144694,-0.171222 -0.465432,-0.171222 -0.267684,0 -0.475079,0.16881 -0.204983,0.166398 -0.303858,0.450963 v 1.786971 h -0.286976 v -2.609315 z"
         style="font-style:normal;font-variant:normal;font-weight:300;font-stretch:normal;font-size:4.93888903px;font-family:roboto;-inkscape-font-specification:'roboto Light';fill:#5f8dd3;stroke-width:0.26458332"
         id="path4589" />
      <path
         d="m 84.861308,56.720104 q -0.04341,-0.12299 -0.05547,-0.364146 -0.151929,0.197748 -0.388263,0.306269 -0.233922,0.106109 -0.496782,0.106109 -0.376205,0 -0.610127,-0.209807 -0.23151,-0.209806 -0.23151,-0.530544 0,-0.381028 0.315915,-0.602892 0.318327,-0.221864 0.885045,-0.221864 h 0.52331 v -0.296623 q 0,-0.279742 -0.173633,-0.438905 -0.171221,-0.161575 -0.501606,-0.161575 -0.301445,0 -0.499194,0.15434 -0.197748,0.15434 -0.197748,0.371381 l -0.289388,-0.0024 q 0,-0.311092 0.289388,-0.53778 0.289388,-0.229099 0.711412,-0.229099 0.436493,0 0.687296,0.219453 0.253215,0.217041 0.26045,0.607715 v 1.234722 q 0,0.378616 0.07958,0.566718 v 0.02894 z m -0.906749,-0.207395 q 0.289388,0 0.516075,-0.13987 0.229099,-0.139871 0.332796,-0.373793 v -0.573953 h -0.516075 q -0.431671,0.0048 -0.675239,0.159163 -0.243568,0.151929 -0.243568,0.419613 0,0.219452 0.161575,0.364146 0.163986,0.144694 0.424436,0.144694 z"
         style="font-style:normal;font-variant:normal;font-weight:300;font-stretch:normal;font-size:4.93888903px;font-family:roboto;-inkscape-font-specification:'roboto Light';fill:#5f8dd3;stroke-width:0.26458332"
         id="path4591" />
      <path
         d="m 87.419977,56.056923 q 0,-0.214629 -0.173633,-0.344854 -0.171221,-0.130224 -0.518487,-0.202571 -0.347265,-0.07476 -0.540191,-0.16881 -0.190513,-0.09646 -0.284565,-0.233922 -0.09164,-0.137459 -0.09164,-0.332796 0,-0.308681 0.258038,-0.508841 0.258037,-0.202572 0.660769,-0.202572 0.436493,0 0.699354,0.217042 0.265273,0.214629 0.265273,0.561895 h -0.289388 q 0,-0.229099 -0.192926,-0.381028 -0.190514,-0.151929 -0.482313,-0.151929 -0.284565,0 -0.458198,0.127813 -0.171221,0.125402 -0.171221,0.327973 0,0.195337 0.142282,0.303858 0.144694,0.106109 0.52331,0.195337 0.381028,0.08923 0.56913,0.190514 0.190514,0.101285 0.282153,0.243568 0.09164,0.142282 0.09164,0.344854 0,0.330385 -0.267684,0.528133 -0.265272,0.197749 -0.694531,0.197749 -0.455786,0 -0.740351,-0.219453 -0.282154,-0.221864 -0.282154,-0.559484 h 0.289388 q 0.01688,0.253215 0.212218,0.395497 0.197749,0.139871 0.520899,0.139871 0.301446,0 0.487136,-0.132636 0.185691,-0.132636 0.185691,-0.335208 z"
         style="font-style:normal;font-variant:normal;font-weight:300;font-stretch:normal;font-size:4.93888903px;font-family:roboto;-inkscape-font-specification:'roboto Light';fill:#5f8dd3;stroke-width:0.26458332"
         id="path4593" />
      <path
         d="m 91.567876,55.036831 h -1.642278 v 1.43247 h 1.888257 v 0.250803 h -2.184879 v -3.511241 h 2.172822 v 0.253214 h -1.8762 v 1.323951 h 1.642278 z"
         style="font-style:normal;font-variant:normal;font-weight:300;font-stretch:normal;font-size:4.93888903px;font-family:roboto;-inkscape-font-specification:'roboto Light';fill:#5f8dd3;stroke-width:0.26458332"
         id="path4595" />
      <path
         d="m 92.631373,54.110789 0.0096,0.424436 q 0.144694,-0.236334 0.361735,-0.354501 0.217041,-0.118167 0.482314,-0.118167 0.617361,0 0.783759,0.50643 0.139871,-0.243569 0.373793,-0.373793 0.233922,-0.132637 0.516075,-0.132637 0.839225,0 0.856106,0.916396 v 1.741151 h -0.289388 v -1.719447 q -0.0024,-0.349677 -0.151928,-0.518487 -0.147106,-0.16881 -0.482314,-0.16881 -0.311092,0.0048 -0.525721,0.202572 -0.21463,0.195337 -0.238746,0.47749 v 1.726682 h -0.289388 v -1.741151 q -0.0024,-0.335208 -0.159163,-0.499194 -0.15434,-0.166399 -0.47749,-0.166399 -0.272507,0 -0.467844,0.156752 -0.195337,0.154341 -0.289388,0.46061 v 1.789382 h -0.289388 v -2.609315 z"
         style="font-style:normal;font-variant:normal;font-weight:300;font-stretch:normal;font-size:4.93888903px;font-family:roboto;-inkscape-font-specification:'roboto Light';fill:#5f8dd3;stroke-width:0.26458332"
         id="path4597" />
      <path
         d="m 98.845985,55.441974 q 0,0.610126 -0.270095,0.96945 -0.270096,0.356912 -0.72347,0.356912 -0.535368,0 -0.819933,-0.376205 v 1.331185 H 96.74551 v -3.612527 h 0.267684 l 0.01447,0.36897 q 0.282153,-0.417202 0.817521,-0.417202 0.467844,0 0.733116,0.354501 0.267684,0.3545 0.267684,0.983919 z m -0.289388,-0.05064 q 0,-0.499194 -0.204983,-0.788583 -0.204983,-0.289388 -0.571541,-0.289388 -0.265273,0 -0.455787,0.127813 -0.190513,0.127814 -0.291799,0.371382 v 1.251603 q 0.103697,0.224276 0.296623,0.342443 0.192925,0.118166 0.455786,0.118166 0.364146,0 0.566718,-0.289388 0.204983,-0.291799 0.204983,-0.844048 z"
         style="font-style:normal;font-variant:normal;font-weight:300;font-stretch:normal;font-size:4.93888903px;font-family:roboto;-inkscape-font-specification:'roboto Light';fill:#5f8dd3;stroke-width:0.26458332"
         id="path4599" />
      <path
         d="m 100.69324,54.356769 q -0.0916,-0.01688 -0.19534,-0.01688 -0.27009,0 -0.4582,0.151928 -0.185687,0.149518 -0.265269,0.436494 v 1.791794 h -0.286977 v -2.609315 h 0.282154 l 0.0048,0.414789 q 0.229099,-0.463021 0.735529,-0.463021 0.12058,0 0.19051,0.03135 z"
         style="font-style:normal;font-variant:normal;font-weight:300;font-stretch:normal;font-size:4.93888903px;font-family:roboto;-inkscape-font-specification:'roboto Light';fill:#5f8dd3;stroke-width:0.26458332"
         id="path4601" />
      <path
         d="m 102.10883,56.768336 q -0.33279,0 -0.60289,-0.163987 -0.26768,-0.163987 -0.4172,-0.455786 -0.14952,-0.294211 -0.14952,-0.658358 v -0.103697 q 0,-0.376205 0.1447,-0.677651 0.1471,-0.301445 0.40755,-0.472667 0.26045,-0.173633 0.56431,-0.173633 0.47508,0 0.75241,0.325562 0.27974,0.32315 0.27974,0.885045 v 0.161575 h -1.86173 v 0.05547 q 0,0.443728 0.25321,0.740351 0.25563,0.294211 0.64148,0.294211 0.23151,0 0.40755,-0.0844 0.17846,-0.0844 0.32315,-0.270095 l 0.18087,0.137459 q -0.31832,0.46061 -0.92363,0.46061 z m -0.053,-2.459799 q -0.32556,0 -0.54984,0.238745 -0.22186,0.238746 -0.27009,0.641477 h 1.5651 v -0.03135 q -0.0121,-0.376205 -0.21463,-0.612538 -0.20257,-0.236334 -0.53054,-0.236334 z"
         style="font-style:normal;font-variant:normal;font-weight:300;font-stretch:normal;font-size:4.93888903px;font-family:roboto;-inkscape-font-specification:'roboto Light';fill:#5f8dd3;stroke-width:0.26458332"
         id="path4603" />
      <path
         d="m 105.21734,56.056923 q 0,-0.214629 -0.17363,-0.344854 -0.17122,-0.130224 -0.51849,-0.202571 -0.34727,-0.07476 -0.54019,-0.16881 -0.19051,-0.09646 -0.28457,-0.233922 -0.0916,-0.137459 -0.0916,-0.332796 0,-0.308681 0.25803,-0.508841 0.25804,-0.202572 0.66077,-0.202572 0.4365,0 0.69936,0.217042 0.26527,0.214629 0.26527,0.561895 h -0.28939 q 0,-0.229099 -0.19292,-0.381028 -0.19052,-0.151929 -0.48232,-0.151929 -0.28456,0 -0.4582,0.127813 -0.17122,0.125402 -0.17122,0.327973 0,0.195337 0.14229,0.303858 0.14469,0.106109 0.52331,0.195337 0.38102,0.08923 0.56913,0.190514 0.19051,0.101285 0.28215,0.243568 0.0916,0.142282 0.0916,0.344854 0,0.330385 -0.26769,0.528133 -0.26527,0.197749 -0.69453,0.197749 -0.45578,0 -0.74035,-0.219453 -0.28215,-0.221864 -0.28215,-0.559484 h 0.28939 q 0.0169,0.253215 0.21221,0.395497 0.19775,0.139871 0.5209,0.139871 0.30145,0 0.48714,-0.132636 0.18569,-0.132636 0.18569,-0.335208 z"
         style="font-style:normal;font-variant:normal;font-weight:300;font-stretch:normal;font-size:4.93888903px;font-family:roboto;-inkscape-font-specification:'roboto Light';fill:#5f8dd3;stroke-width:0.26458332"
         id="path4605" />
      <path
         d="m 107.80013,56.720104 q -0.0434,-0.12299 -0.0555,-0.364146 -0.15193,0.197748 -0.38826,0.306269 -0.23392,0.106109 -0.49678,0.106109 -0.37621,0 -0.61013,-0.209807 -0.23151,-0.209806 -0.23151,-0.530544 0,-0.381028 0.31591,-0.602892 0.31833,-0.221864 0.88505,-0.221864 h 0.52331 v -0.296623 q 0,-0.279742 -0.17363,-0.438905 -0.17122,-0.161575 -0.50161,-0.161575 -0.30144,0 -0.49919,0.15434 -0.19775,0.15434 -0.19775,0.371381 l -0.28939,-0.0024 q 0,-0.311092 0.28939,-0.53778 0.28939,-0.229099 0.71141,-0.229099 0.43649,0 0.6873,0.219453 0.25321,0.217041 0.26045,0.607715 v 1.234722 q 0,0.378616 0.0796,0.566718 v 0.02894 z m -0.90675,-0.207395 q 0.28939,0 0.51607,-0.13987 0.2291,-0.139871 0.3328,-0.373793 v -0.573953 h -0.51608 q -0.43167,0.0048 -0.67523,0.159163 -0.24357,0.151929 -0.24357,0.419613 0,0.219452 0.16157,0.364146 0.16399,0.144694 0.42444,0.144694 z"
         style="font-style:normal;font-variant:normal;font-weight:300;font-stretch:normal;font-size:4.93888903px;font-family:roboto;-inkscape-font-specification:'roboto Light';fill:#5f8dd3;stroke-width:0.26458332"
         id="path4607" />
      <path
         d="m 110.3588,56.056923 q 0,-0.214629 -0.17363,-0.344854 -0.17122,-0.130224 -0.51849,-0.202571 -0.34726,-0.07476 -0.54019,-0.16881 -0.19051,-0.09646 -0.28456,-0.233922 -0.0916,-0.137459 -0.0916,-0.332796 0,-0.308681 0.25804,-0.508841 0.25803,-0.202572 0.66077,-0.202572 0.43649,0 0.69935,0.217042 0.26527,0.214629 0.26527,0.561895 h -0.28938 q 0,-0.229099 -0.19293,-0.381028 -0.19051,-0.151929 -0.48231,-0.151929 -0.28457,0 -0.4582,0.127813 -0.17122,0.125402 -0.17122,0.327973 0,0.195337 0.14228,0.303858 0.14469,0.106109 0.52331,0.195337 0.38103,0.08923 0.56913,0.190514 0.19051,0.101285 0.28215,0.243568 0.0916,0.142282 0.0916,0.344854 0,0.330385 -0.26768,0.528133 -0.26527,0.197749 -0.69453,0.197749 -0.45579,0 -0.74035,-0.219453 -0.28216,-0.221864 -0.28216,-0.559484 h 0.28939 q 0.0169,0.253215 0.21222,0.395497 0.19775,0.139871 0.5209,0.139871 0.30144,0 0.48713,-0.132636 0.18569,-0.132636 0.18569,-0.335208 z"
         style="font-style:normal;font-variant:normal;font-weight:300;font-stretch:normal;font-size:4.93888903px;font-family:roboto;-inkscape-font-specification:'roboto Light';fill:#5f8dd3;stroke-width:0.26458332"
         id="path4609" />
    </g>
  </g>
</svg>
